<svg width="193" height="76" viewBox="0 0 193 76" fill="none" xmlns="http://www.w3.org/2000/svg">
<g opacity="0.5">
<path d="M89.3409 47.4152C88.0309 47.4152 86.8122 47.198 85.6846 46.7637C84.5737 46.3138 83.5954 45.6865 82.7495 44.8826C81.9205 44.0784 81.2736 43.1459 80.8096 42.0847C80.3451 41.0074 80.1129 39.8495 80.1129 38.6114C80.1129 37.3733 80.3451 36.2235 80.8096 35.1623C81.2736 34.085 81.9205 33.1523 82.7495 32.3644C83.5788 31.5765 84.5488 30.9655 85.6597 30.5313C86.7873 30.0811 88.006 29.856 89.316 29.856C90.709 29.856 91.9447 30.073 93.0225 30.5072C93.9473 30.8742 94.7716 31.356 95.4957 31.9527C95.7142 32.133 95.7176 32.454 95.5156 32.6517L93.647 34.4806C93.4418 34.6815 93.1071 34.6744 92.8852 34.4907C92.5041 34.1753 92.0691 33.9167 91.5798 33.7151C90.9329 33.4418 90.1786 33.3051 89.316 33.3051C88.5534 33.3051 87.8489 33.4337 87.202 33.691C86.5716 33.9322 86.0247 34.2859 85.5602 34.7523C85.1128 35.2186 84.7561 35.7814 84.4907 36.4406C84.2419 37.0999 84.1175 37.8235 84.1175 38.6114C84.1175 39.4154 84.2419 40.147 84.4907 40.8064C84.7561 41.4654 85.1128 42.0284 85.5602 42.4945C86.0247 42.9609 86.5716 43.3228 87.202 43.5802C87.8489 43.8371 88.5534 43.9658 89.316 43.9658C90.2118 43.9658 90.9909 43.8291 91.6544 43.556C92.15 43.3518 92.595 43.0888 92.9889 42.7679C93.2087 42.5886 93.5371 42.5837 93.7399 42.7808L95.6288 44.612C95.8353 44.8123 95.8291 45.14 95.6039 45.3197C94.8571 45.9157 94.0215 46.397 93.0971 46.7637C92.019 47.198 90.767 47.4152 89.3409 47.4152Z" fill="#2E4057"/>
<path d="M75.4787 47.1498C75.1951 47.1498 74.965 46.9266 74.965 46.6515V30.6195C74.965 30.3443 75.1951 30.1213 75.4787 30.1213H78.3563C78.6399 30.1213 78.8701 30.3443 78.8701 30.6195V46.6515C78.8701 46.9266 78.6399 47.1498 78.3563 47.1498H75.4787Z" fill="#2E4057"/>
<path d="M96.9139 46.6515C96.9139 46.9266 97.1441 47.1498 97.4277 47.1498H100.305C100.323 47.1498 100.341 47.149 100.359 47.1469C100.377 47.149 100.394 47.1498 100.413 47.1498H109.011C109.295 47.1498 109.525 46.9266 109.525 46.6515V44.3675C109.525 44.0925 109.295 43.8693 109.011 43.8693H100.819V40.0345H108.141C108.424 40.0345 108.654 39.8114 108.654 39.5363V37.3729C108.654 37.0978 108.424 36.8748 108.141 36.8748H100.819V33.3774H108.887C109.17 33.3774 109.401 33.1544 109.401 32.8792V30.6195C109.401 30.3443 109.17 30.1213 108.887 30.1213H100.413C100.394 30.1213 100.377 30.1222 100.359 30.1239C100.341 30.1222 100.323 30.1213 100.305 30.1213H97.4277C97.1441 30.1213 96.9139 30.3443 96.9139 30.6195V46.6515Z" fill="#2E4057"/>
<path fill-rule="evenodd" clip-rule="evenodd" d="M114.472 47.1498C114.445 47.1498 114.419 47.1477 114.393 47.1441C114.368 47.1477 114.342 47.1498 114.315 47.1498H111.487C111.203 47.1498 110.973 46.9266 110.973 46.6515V30.6195C110.973 30.3443 111.203 30.1213 111.487 30.1213H114.315C114.342 30.1213 114.368 30.1233 114.393 30.127C114.419 30.1233 114.445 30.1213 114.472 30.1213H118.51C119.638 30.1213 120.591 30.3223 121.37 30.7243C122.167 31.1263 122.772 31.6649 123.186 32.3403C123.601 33.0156 123.808 33.7633 123.808 34.5834C123.808 35.6286 123.46 36.513 122.763 37.2366C122.464 37.5483 122.102 37.8182 121.679 38.0464C122.272 38.3283 122.775 38.6855 123.186 39.1179C123.999 39.954 124.405 40.9833 124.405 42.2053C124.405 43.1378 124.165 43.9819 123.684 44.7379C123.22 45.4774 122.539 46.0644 121.644 46.4983C120.765 46.9326 119.704 47.1498 118.46 47.1498H114.472ZM114.829 44.2071H118.087C118.85 44.2071 119.447 43.9899 119.878 43.556C120.309 43.1218 120.525 42.591 120.525 41.9641C120.525 41.5298 120.425 41.1441 120.226 40.8064C120.027 40.4686 119.745 40.2033 119.381 40.0103C119.032 39.8174 118.601 39.7209 118.087 39.7209H114.829V44.2071ZM117.764 36.8507H114.829V33.0639H117.764C118.41 33.0639 118.933 33.2247 119.331 33.5463C119.729 33.8518 119.928 34.3181 119.928 34.9452C119.928 35.5884 119.729 36.0708 119.331 36.3924C118.933 36.6979 118.41 36.8507 117.764 36.8507Z" fill="#2E4057"/>
<path d="M125.664 46.6515C125.664 46.9266 125.894 47.1498 126.178 47.1498H129.056C129.074 47.1498 129.092 47.149 129.109 47.1469C129.127 47.149 129.145 47.1498 129.163 47.1498H137.761C138.045 47.1498 138.275 46.9266 138.275 46.6515V44.3675C138.275 44.0925 138.045 43.8693 137.761 43.8693H129.57V40.0345H136.891C137.175 40.0345 137.405 39.8114 137.405 39.5363V37.3729C137.405 37.0978 137.175 36.8748 136.891 36.8748H129.57V33.3774H137.637C137.921 33.3774 138.151 33.1544 138.151 32.8792V30.6195C138.151 30.3443 137.921 30.1213 137.637 30.1213H129.163C129.145 30.1213 129.127 30.1222 129.109 30.1239C129.092 30.1222 129.074 30.1213 129.056 30.1213H126.178C125.894 30.1213 125.664 30.3443 125.664 30.6195V46.6515Z" fill="#2E4057"/>
<path fill-rule="evenodd" clip-rule="evenodd" d="M143.629 46.6515V40.1309H144.142C144.146 40.2241 144.177 40.3182 144.239 40.4018L149.121 46.9435C149.218 47.073 149.373 47.1498 149.538 47.1498H152.863C153.288 47.1498 153.529 46.6769 153.271 46.3491L148.276 40.0083C148.874 39.9052 149.422 39.7371 149.922 39.5038C150.817 39.0858 151.514 38.5069 152.011 37.7672C152.509 37.0114 152.758 36.1351 152.758 35.1382C152.758 34.1573 152.509 33.289 152.011 32.5332C151.514 31.7775 150.826 31.1906 149.947 30.7725C149.068 30.3384 148.048 30.1213 146.887 30.1213H143.222C143.204 30.1213 143.186 30.1222 143.169 30.1239C143.151 30.1222 143.133 30.1213 143.115 30.1213H140.237C139.954 30.1213 139.724 30.3443 139.724 30.6195V46.6515C139.724 46.9266 139.954 47.1498 140.237 47.1498H143.115C143.399 47.1498 143.629 46.9266 143.629 46.6515ZM146.415 37.333H143.629V33.0639H146.44C147.219 33.0639 147.816 33.2649 148.231 33.6669C148.645 34.0689 148.852 34.5754 148.852 35.1864C148.852 35.8457 148.637 36.3683 148.206 36.7542C147.791 37.1401 147.194 37.333 146.415 37.333Z" fill="#2E4057"/>
<path d="M158.97 46.7396C160.097 47.19 161.299 47.4152 162.576 47.4152C164.318 47.4152 165.851 47.0613 167.178 46.354C168.521 45.6462 169.566 44.6011 170.312 43.2183C171.075 41.8193 171.456 40.0988 171.456 38.0567V38.0001C171.456 37.7249 171.226 37.5019 170.942 37.5019H162.742C162.458 37.5019 162.228 37.7249 162.228 38.0001V40.2193C162.228 40.4915 162.453 40.7131 162.733 40.7175L167.273 40.7875C167.176 41.1417 167.045 41.4699 166.879 41.771C166.498 42.4784 165.942 43.0252 165.213 43.4113C164.5 43.7812 163.629 43.9658 162.601 43.9658C161.59 43.9658 160.694 43.741 159.915 43.2906C159.135 42.8403 158.522 42.2134 158.074 41.4091C157.627 40.6053 157.403 39.6726 157.403 38.6114C157.403 37.5501 157.627 36.6255 158.074 35.8376C158.538 35.0336 159.177 34.4146 159.989 33.9804C160.802 33.5302 161.722 33.3051 162.75 33.3051C163.712 33.3051 164.574 33.4819 165.337 33.8357C165.936 34.1134 166.473 34.5001 166.95 34.9959C167.161 35.2156 167.521 35.2396 167.74 35.0273L169.655 33.1707C169.843 32.9876 169.857 32.6934 169.673 32.5059C168.915 31.7341 167.992 31.1161 166.904 30.6519C165.677 30.1213 164.309 29.856 162.8 29.856C161.49 29.856 160.263 30.0811 159.119 30.5313C157.974 30.9655 156.971 31.5846 156.109 32.3885C155.263 33.1765 154.6 34.101 154.119 35.1623C153.638 36.2235 153.398 37.3733 153.398 38.6114C153.398 39.8495 153.63 41.0074 154.094 42.0847C154.575 43.1459 155.23 44.0784 156.059 44.8826C156.888 45.6704 157.858 46.2896 158.97 46.7396Z" fill="#2E4057"/>
<path d="M23.5854 24.0558C21.3853 26.7686 21.3853 30.7393 21.3853 38.6807C21.3853 46.6222 21.3853 50.5927 23.5854 53.3058C24.0903 53.9282 24.6699 54.49 25.3119 54.9798C25.5576 55.1671 25.8133 55.3381 26.081 55.4941L36.9107 32.3089C37.3815 31.301 38.5739 30.8153 39.6458 31.1947L46.5278 33.631C47.178 33.8611 47.6769 34.3768 47.8722 35.0205L54.175 55.7768C54.6411 55.5512 55.072 55.2878 55.4759 54.9798C56.1183 54.49 56.6976 53.9282 57.2027 53.3058C59.4026 50.5927 59.4026 46.6222 59.4026 38.6807C59.4026 30.7393 59.4026 26.7686 57.2027 24.0558C56.6976 23.4332 56.1183 22.8712 55.4759 22.3816C52.6784 20.2482 48.5834 20.2482 40.394 20.2482C32.2043 20.2482 28.1095 20.2482 25.3119 22.3816C24.6699 22.8712 24.0903 23.4332 23.5854 24.0558Z" fill="#2E4057"/>
</g>
</svg>
