<svg width="193" height="76" viewBox="0 0 193 76" fill="none" xmlns="http://www.w3.org/2000/svg">
<g opacity="0.5">
<path d="M77.815 27.4653H82.286V48.4109H77.815V27.4653Z" fill="#2E4057"/>
<path d="M97.0859 32.2529C99.4016 32.2529 101.259 32.8414 102.657 34.0184C104.056 35.1953 104.755 36.9408 104.755 39.2548V48.4109H100.456V39.7337C100.456 38.3371 100.078 37.2899 99.3212 36.5917C98.5649 35.8735 97.4872 35.5145 96.0888 35.5145C94.5065 35.5145 93.2568 35.9334 92.34 36.7712C91.4228 37.5891 90.964 38.7762 90.964 40.3319V48.4109H86.6652V32.4325H90.7577V34.4971C91.4686 33.759 92.3629 33.2005 93.4405 32.8215C94.5182 32.4424 95.7333 32.2529 97.0859 32.2529Z" fill="#2E4057"/>
<path d="M125.349 32.4325L117.473 48.4109H113.037L105.161 32.4325H109.632L115.341 44.2817L121.222 32.4325H125.349Z" fill="#2E4057"/>
<path d="M143.077 40.5114C143.077 40.771 143.054 41.1397 143.009 41.6187H128.598C128.851 42.7955 129.504 43.7331 130.559 44.4314C131.636 45.1098 132.966 45.4488 134.548 45.4488C136.566 45.4488 138.228 44.8701 139.535 43.7132L141.839 46.0172C141.014 46.8751 139.97 47.5233 138.709 47.962C137.448 48.4011 136.027 48.6204 134.445 48.6204C132.427 48.6204 130.65 48.2713 129.114 47.5734C127.578 46.8751 126.386 45.9074 125.537 44.6707C124.712 43.4141 124.299 41.9975 124.299 40.4218C124.299 38.8657 124.701 37.4694 125.503 36.2326C126.328 34.9759 127.463 33.9984 128.908 33.3002C130.352 32.602 131.98 32.2529 133.791 32.2529C135.58 32.2529 137.173 32.602 138.572 33.3002C139.993 33.9785 141.094 34.946 141.873 36.2027C142.676 37.4395 143.077 38.8759 143.077 40.5114ZM133.791 35.2452C132.416 35.2452 131.246 35.6042 130.283 36.3224C129.343 37.0206 128.77 37.9582 128.564 39.1351H138.985C138.801 37.9782 138.239 37.0405 137.3 36.3224C136.359 35.6042 135.19 35.2452 133.791 35.2452Z" fill="#2E4057"/>
<path d="M149.58 34.7664C150.818 33.0908 152.996 32.5522 156.114 32.5522V35.5444C155.747 35.4846 155.415 35.4546 155.117 35.4546C153.443 35.4546 152.136 36.1528 151.196 37.0106C150.256 37.8484 149.786 39.0651 149.786 40.6611V48.4109H145.487V32.4325H149.58V34.7664Z" fill="#2E4057"/>
<path d="M170.618 47.5433C170.113 47.9022 169.494 48.1716 168.76 48.351C168.05 48.5309 167.293 48.6204 166.49 48.6204C164.473 48.6204 162.914 48.1618 161.813 47.2442C160.713 46.3265 160.163 44.9897 160.163 43.2346V35.5444H157.136V32.5522H160.163V28.9016H164.462V32.5522H169.38V35.5444H164.462V43.1447C164.462 43.9227 164.679 44.521 165.115 44.9401C165.55 45.3389 166.181 45.5387 167.006 45.5387C167.969 45.5387 168.772 45.319 169.414 44.8803L170.618 47.5433Z" fill="#2E4057"/>
<path fill-rule="evenodd" clip-rule="evenodd" d="M66.5718 38C66.5718 48.5975 56.6981 57.1881 44.5177 57.1881C32.3376 57.1881 22.4637 48.5975 22.4637 38C22.4637 27.4027 32.3376 18.8119 44.5177 18.8119C56.6981 18.8119 66.5718 27.4027 66.5718 38ZM59.6408 38C59.6408 45.2667 52.8702 51.1574 44.5182 51.1574C43.9391 51.1574 43.3675 51.1292 42.8054 51.0743C50.4057 50.3793 56.3292 44.7862 56.3292 37.9891C56.3292 31.2263 50.4646 25.6551 42.919 24.9151C43.4445 24.8671 43.9781 24.8424 44.5182 24.8424C52.8702 24.8424 59.6408 30.7333 59.6408 38ZM39.6343 47.2679C44.6185 46.5018 48.4096 42.6439 48.4096 38C48.4096 33.3559 44.6185 29.498 39.6343 28.7322C40.2374 28.6414 40.8577 28.5941 41.4907 28.5941C47.4613 28.5941 52.3015 32.8052 52.3015 38C52.3015 43.1947 47.4613 47.4059 41.4907 47.4059C40.8577 47.4059 40.2374 47.3585 39.6343 47.2679Z" fill="#2E4057"/>
</g>
</svg>
