<svg width="193" height="76" viewBox="0 0 193 76" fill="none" xmlns="http://www.w3.org/2000/svg">
<g opacity="0.5">
<path fill-rule="evenodd" clip-rule="evenodd" d="M49.2383 24.7171H32.1124V17.4961H56.5035V41.738H49.2383V24.7171Z" fill="#2E4057"/>
<path fill-rule="evenodd" clip-rule="evenodd" d="M35.8607 39.0857C34.7513 38.3489 33.4469 37.9556 32.1126 37.9556V30.7346C34.8839 30.7346 37.593 31.5514 39.8972 33.0816C42.2015 34.6119 43.9974 36.7868 45.0579 39.3316C46.1185 41.8764 46.3961 44.6764 45.8555 47.3777C45.3148 50.079 43.9803 52.5606 42.0205 54.5081C40.0609 56.456 37.5642 57.7823 34.8462 58.3197C32.1281 58.857 29.3108 58.5811 26.7504 57.527C24.1901 56.473 22.0017 54.6882 20.4621 52.3979C18.9224 50.1075 18.1006 47.4153 18.1006 44.6607H25.3661C25.3661 45.987 25.7618 47.2836 26.5031 48.386C27.2444 49.4888 28.298 50.3483 29.5308 50.8556C30.7636 51.3632 32.1201 51.4962 33.4288 51.2372C34.7374 50.9786 35.9396 50.3401 36.8831 49.4021C37.8266 48.4645 38.4691 47.2695 38.7295 45.9688C38.9897 44.6682 38.8562 43.32 38.3456 42.0949C37.8349 40.8697 36.9702 39.8225 35.8607 39.0857Z" fill="#2E4057"/>
<path d="M67.9209 52.9303V22.6341H79.1994C81.6381 22.6341 83.6558 23.038 85.2524 23.8459C86.8491 24.6538 88.0393 25.7647 88.8231 27.1785C89.6069 28.5923 89.9988 30.1793 89.9988 31.9393C89.9988 33.6128 89.6215 35.1564 88.8668 36.5703C88.1117 37.9552 86.936 39.0805 85.3393 39.9461C83.7426 40.7829 81.6959 41.2013 79.1994 41.2013H73.4947V52.9303H67.9209ZM73.4947 36.7001H78.8508C80.7961 36.7001 82.1896 36.2817 83.0315 35.445C83.9022 34.5794 84.3377 33.4108 84.3377 31.9393C84.3377 30.4389 83.9022 29.2704 83.0315 28.4336C82.1896 27.568 80.7961 27.1352 78.8508 27.1352H73.4947V36.7001Z" fill="#2E4057"/>
<path d="M101.453 53.4495C99.2755 53.4495 97.3451 52.9877 95.6612 52.0645C93.9772 51.1414 92.6565 49.8428 91.6986 48.1691C90.7406 46.4959 90.2615 44.5628 90.2615 42.37C90.2615 40.1481 90.7261 38.1716 91.6549 36.4404C92.6129 34.7092 93.9195 33.3676 95.5743 32.4154C97.2578 31.4344 99.2319 30.9439 101.496 30.9439C103.616 30.9439 105.488 31.4055 107.114 32.3288C108.74 33.2521 110.003 34.5217 110.902 36.1375C111.832 37.7244 112.296 39.4989 112.296 41.4609C112.296 41.7781 112.281 42.1102 112.253 42.4563C112.253 42.8025 112.238 43.1635 112.209 43.5385H95.7917C95.908 45.2117 96.4886 46.5248 97.5338 47.4769C98.6077 48.4289 99.8997 48.9052 101.41 48.9052C102.542 48.9052 103.485 48.6598 104.24 48.1691C105.024 47.6499 105.604 46.9862 105.982 46.1783H111.643C111.236 47.5347 110.554 48.7751 109.596 49.9006C108.667 50.9968 107.506 51.8626 106.112 52.4974C104.748 53.1323 103.195 53.4495 101.453 53.4495ZM101.496 35.445C100.132 35.445 98.9272 35.8345 97.882 36.6135C96.8369 37.3637 96.1694 38.5179 95.8789 40.076H106.635C106.548 38.6622 106.025 37.5369 105.067 36.7001C104.109 35.8634 102.919 35.445 101.496 35.445Z" fill="#2E4057"/>
<path d="M114.807 52.9303V31.4632H119.727L120.163 35.0987C120.831 33.8292 121.789 32.8193 123.037 32.0691C124.314 31.319 125.809 30.9439 127.522 30.9439C130.193 30.9439 132.269 31.7806 133.749 33.4541C135.23 35.1276 135.97 37.5801 135.97 40.8117V52.9303H130.396V41.3312C130.396 39.4845 130.019 38.0707 129.264 37.0897C128.509 36.1086 127.333 35.6181 125.737 35.6181C124.169 35.6181 122.877 36.1663 121.861 37.2628C120.874 38.3592 120.381 39.8884 120.381 41.8504V52.9303H114.807Z" fill="#2E4057"/>
<path d="M148.747 52.9303C146.482 52.9303 144.668 52.3818 143.303 51.2855C141.939 50.1889 141.257 48.2414 141.257 45.4426V36.0942H137.555V31.4632H141.257L141.91 25.707H146.83V31.4632H152.666V36.0942H146.83V45.486C146.83 46.5248 147.048 47.246 147.484 47.6499C147.948 48.025 148.732 48.2125 149.835 48.2125H152.535V52.9303H148.747Z" fill="#2E4057"/>
<path d="M162.721 53.4495C160.863 53.4495 159.338 53.1608 158.148 52.5837C156.958 51.9778 156.073 51.1843 155.492 50.2034C154.911 49.2224 154.621 48.1406 154.621 46.9577C154.621 44.9668 155.405 43.351 156.972 42.1102C158.54 40.8694 160.892 40.2491 164.027 40.2491H169.514V39.7297C169.514 38.2582 169.093 37.1762 168.251 36.4837C167.409 35.7913 166.364 35.445 165.116 35.445C163.983 35.445 162.996 35.7191 162.154 36.2673C161.313 36.7867 160.79 37.5657 160.587 38.6044H155.143C155.288 37.0464 155.811 35.6903 156.711 34.5361C157.64 33.382 158.83 32.5019 160.282 31.896C161.733 31.2612 163.359 30.9439 165.159 30.9439C168.236 30.9439 170.66 31.7085 172.431 33.2377C174.202 34.7669 175.088 36.931 175.088 39.7297V52.9303H170.341L169.818 49.4677C169.18 50.6218 168.28 51.5738 167.119 52.3243C165.986 53.0744 164.521 53.4495 162.721 53.4495ZM163.983 49.1216C165.58 49.1216 166.814 48.602 167.685 47.5636C168.585 46.5248 169.151 45.2407 169.383 43.7116H164.637C163.156 43.7116 162.096 43.9854 161.458 44.5339C160.819 45.0531 160.5 45.7024 160.5 46.4814C160.5 47.3183 160.819 47.9676 161.458 48.4289C162.096 48.8907 162.938 49.1216 163.983 49.1216Z" fill="#2E4057"/>
</g>
</svg>
