<svg width="192" height="76" viewBox="0 0 192 76" fill="none" xmlns="http://www.w3.org/2000/svg">
<g opacity="0.5">
<path d="M38.6053 57.6999H24.9388L38.6053 38.3395H52.2719L38.6053 57.6999Z" fill="#2E4057"/>
<path d="M33.6051 18.3547H47.6048L33.6051 38.3395H19.6052L33.6051 18.3547Z" fill="#2E4057"/>
<path d="M80.1521 35.197C80.1521 36.3841 79.8465 37.4973 79.2353 38.5363C78.647 39.575 77.7078 40.4125 76.4179 41.0487C75.1504 41.6846 73.5437 42.0027 71.5975 42.0027H67.6253V50.5255H62.8728V28.3277H71.5975C73.4305 28.3277 74.992 28.6245 76.2819 29.2182C77.5722 29.8118 78.5338 30.6281 79.1677 31.667C79.8241 32.7058 80.1521 33.8825 80.1521 35.197ZM71.3935 38.409C72.7062 38.409 73.6793 38.1335 74.3133 37.582C74.9468 37.0098 75.2636 36.2147 75.2636 35.197C75.2636 33.0344 73.9737 31.9532 71.3935 31.9532H67.6253V38.409H71.3935Z" fill="#2E4057"/>
<path d="M86.9211 35.6422C87.5323 34.7093 88.3242 33.9779 89.2974 33.4479C90.2933 32.9178 91.4248 32.6528 92.6923 32.6528V37.3276H91.436C89.9425 37.3276 88.811 37.6562 88.0415 38.3138C87.2947 38.971 86.9211 40.1157 86.9211 41.7482V50.5255H82.1687V32.9072H86.9211V35.6422Z" fill="#2E4057"/>
<path d="M102.886 50.8118C101.076 50.8118 99.4463 50.4408 97.998 49.6989C96.5497 48.9357 95.4066 47.8648 94.5695 46.4867C93.7547 45.1085 93.3472 43.5187 93.3472 41.7164C93.3472 39.9145 93.7659 38.3243 94.6035 36.9461C95.4634 35.568 96.6289 34.5079 98.1 33.7659C99.5711 33.0026 101.212 32.621 103.022 32.621C104.833 32.621 106.473 33.0026 107.945 33.7659C109.416 34.5079 110.57 35.568 111.408 36.9461C112.267 38.3243 112.697 39.9145 112.697 41.7164C112.697 43.5187 112.256 45.1085 111.374 46.4867C110.513 47.8648 109.336 48.9357 107.843 49.6989C106.372 50.4408 104.72 50.8118 102.886 50.8118ZM102.886 46.9318C103.746 46.9318 104.55 46.7411 105.297 46.3596C106.066 45.9568 106.677 45.363 107.13 44.5787C107.583 43.7941 107.809 42.8401 107.809 41.7164C107.809 40.0415 107.334 38.7589 106.383 37.8683C105.455 36.9566 104.312 36.501 102.955 36.501C101.597 36.501 100.453 36.9566 99.5259 37.8683C98.6204 38.7589 98.168 40.0415 98.168 41.7164C98.168 43.3913 98.6092 44.6847 99.4919 45.5964C100.397 46.4867 101.529 46.9318 102.886 46.9318Z" fill="#2E4057"/>
<path d="M119.578 46.9955H124.682V50.5255H114.826V25.5927H119.578V46.9955Z" fill="#2E4057"/>
<path d="M128.369 30.8083C127.532 30.8083 126.83 30.5645 126.264 30.0769C125.721 29.568 125.449 28.9426 125.449 28.2005C125.449 27.4585 125.721 26.8436 126.264 26.356C126.83 25.8472 127.532 25.5927 128.369 25.5927C129.206 25.5927 129.896 25.8472 130.439 26.356C131.005 26.8436 131.288 27.4585 131.288 28.2005C131.288 28.9426 131.005 29.568 130.439 30.0769C129.896 30.5645 129.206 30.8083 128.369 30.8083ZM130.711 32.9072V50.5255H125.959V32.9072H130.711Z" fill="#2E4057"/>
<path d="M144.471 32.6528C146.711 32.6528 148.522 33.3207 149.903 34.6564C151.283 35.9708 151.973 37.8154 151.973 40.1899V50.5255H147.22V40.7943C147.22 39.3948 146.847 38.3243 146.1 37.582C145.353 36.8187 144.335 36.4373 143.045 36.4373C141.732 36.4373 140.691 36.8187 139.922 37.582C139.175 38.3243 138.802 39.3948 138.802 40.7943V50.5255H134.049V32.9072H138.802V35.1016C139.435 34.3383 140.239 33.7447 141.212 33.3207C142.207 32.8754 143.294 32.6528 144.471 32.6528Z" fill="#2E4057"/>
<path d="M172.618 41.335C172.618 41.9708 172.572 42.5434 172.482 43.0522H158.733C158.846 44.3243 159.322 45.3206 160.159 46.0415C160.996 46.7624 162.026 47.1229 163.248 47.1229C165.013 47.1229 166.27 46.4125 167.016 44.992H172.142C171.599 46.6882 170.558 48.0874 169.019 49.1901C167.48 50.2711 165.591 50.8118 163.35 50.8118C161.54 50.8118 159.91 50.4408 158.462 49.6989C157.036 48.9357 155.916 47.8648 155.101 46.4867C154.309 45.1085 153.913 43.5187 153.913 41.7164C153.913 39.8931 154.309 38.2924 155.101 36.9143C155.893 35.5362 157.002 34.4761 158.428 33.7341C159.853 32.992 161.494 32.621 163.35 32.621C165.138 32.621 166.734 32.9814 168.137 33.7023C169.562 34.4232 170.66 35.4514 171.43 36.7873C172.222 38.1017 172.618 39.6174 172.618 41.335ZM167.695 40.0629C167.673 38.9178 167.231 38.0062 166.371 37.3276C165.511 36.628 164.459 36.2784 163.214 36.2784C162.038 36.2784 161.042 36.6175 160.227 37.2961C159.435 37.9533 158.948 38.8754 158.767 40.0629H167.695Z" fill="#2E4057"/>
</g>
</svg>
