<svg width="193" height="76" viewBox="0 0 193 76" fill="none" xmlns="http://www.w3.org/2000/svg">
<g opacity="0.5">
<path d="M65.4768 29.4685C66.9281 29.4685 68.1843 29.7152 69.2454 30.2084C70.3221 30.7016 71.149 31.4016 71.7262 32.3086C72.3037 33.2154 72.5925 34.2894 72.5925 35.5304C72.5925 36.7555 72.3037 37.8294 71.7262 38.7522C71.149 39.6591 70.3221 40.3592 69.2454 40.8526C68.1843 41.3297 66.9281 41.5684 65.4768 41.5684H62.1765V46.1746H58.3849V29.4685H65.4768ZM65.2664 38.4181C66.4052 38.4181 67.2715 38.1715 67.8643 37.6783C68.4575 37.1691 68.7537 36.4532 68.7537 35.5304C68.7537 34.5917 68.4575 33.8757 67.8643 33.3825C67.2715 32.8733 66.4052 32.6188 65.2664 32.6188H62.1765V38.4181H65.2664Z" fill="#2E4057"/>
<path d="M77.3593 35.0292C77.796 34.4087 78.3814 33.9393 79.1146 33.6211C79.8635 33.3029 80.7217 33.1438 81.6891 33.1438V36.5805C81.2836 36.5486 81.0104 36.5327 80.8699 36.5327C79.8245 36.5327 79.0054 36.835 78.4126 37.4396C77.8194 38.0283 77.5228 38.9193 77.5228 40.1125V46.1746H73.8717V33.3348H77.3593V35.0292Z" fill="#2E4057"/>
<path d="M88.5675 46.3652C87.2415 46.3652 86.0477 46.087 84.9866 45.53C83.9412 44.9574 83.1221 44.1695 82.5289 43.1672C81.9361 42.1649 81.6395 41.0273 81.6395 39.7546C81.6395 38.4817 81.9361 37.3442 82.5289 36.3418C83.1221 35.3394 83.9412 34.5599 84.9866 34.003C86.0477 33.4302 87.2415 33.1438 88.5675 33.1438C89.894 33.1438 91.0799 33.4302 92.1254 34.003C93.1708 34.5599 93.99 35.3394 94.5831 36.3418C95.1759 37.3442 95.4725 38.4817 95.4725 39.7546C95.4725 41.0273 95.1759 42.1649 94.5831 43.1672C93.99 44.1695 93.1708 44.9574 92.1254 45.53C91.0799 46.087 89.894 46.3652 88.5675 46.3652ZM88.5675 43.3104C89.5041 43.3104 90.2686 42.9925 90.8614 42.3559C91.4702 41.7037 91.7742 40.8367 91.7742 39.7546C91.7742 38.6727 91.4702 37.8135 90.8614 37.1771C90.2686 36.5248 89.5041 36.1986 88.5675 36.1986C87.6313 36.1986 86.859 36.5248 86.2506 37.1771C85.6419 37.8135 85.3375 38.6727 85.3375 39.7546C85.3375 40.8367 85.6419 41.7037 86.2506 42.3559C86.859 42.9925 87.6313 43.3104 88.5675 43.3104Z" fill="#2E4057"/>
<path d="M112.027 29.4685V46.1746H108.914L100.745 36.0316V46.1746H97.0003V29.4685H100.137L108.282 39.6114V29.4685H112.027Z" fill="#2E4057"/>
<path d="M119.555 33.1438C121.505 33.1438 123.003 33.6211 124.048 34.5758C125.094 35.5145 125.617 36.9385 125.617 38.8477V46.1746H122.2V44.5754C121.513 45.7687 120.233 46.3652 118.361 46.3652C117.394 46.3652 116.551 46.1984 115.833 45.8642C115.131 45.53 114.593 45.0688 114.218 44.4799C113.844 43.8914 113.656 43.2229 113.656 42.4752C113.656 41.2819 114.093 40.3433 114.967 39.6591C115.856 38.975 117.222 38.6329 119.063 38.6329H121.965C121.965 37.8215 121.724 37.201 121.24 36.7714C120.756 36.3259 120.031 36.1031 119.063 36.1031C118.392 36.1031 117.729 36.2145 117.074 36.4373C116.434 36.6441 115.888 36.9305 115.435 37.2964L114.125 34.6951C114.811 34.2019 115.63 33.82 116.582 33.5495C117.549 33.2791 118.541 33.1438 119.555 33.1438ZM119.274 43.8596C119.898 43.8596 120.452 43.7163 120.936 43.4298C121.419 43.1274 121.762 42.6901 121.965 42.1171V40.8048H119.461C117.963 40.8048 117.214 41.3058 117.214 42.3081C117.214 42.7856 117.394 43.1672 117.752 43.4537C118.127 43.7243 118.634 43.8596 119.274 43.8596Z" fill="#2E4057"/>
<path d="M135.873 45.5538C135.514 45.8244 135.069 46.0313 134.539 46.1746C134.024 46.3015 133.478 46.3652 132.9 46.3652C131.403 46.3652 130.24 45.9756 129.413 45.1961C128.601 44.4162 128.196 43.2707 128.196 41.7594V36.485H126.253V33.6211H128.196V30.4947H131.847V33.6211H134.984V36.485H131.847V41.7117C131.847 42.2524 131.98 42.6742 132.245 42.9766C132.526 43.2627 132.916 43.4059 133.416 43.4059C133.993 43.4059 134.484 43.2468 134.89 42.9289L135.873 45.5538Z" fill="#2E4057"/>
<path d="M149.439 33.3348V46.1746H145.974V44.647C145.491 45.2037 144.913 45.6334 144.242 45.9358C143.571 46.2223 142.846 46.3652 142.066 46.3652C140.411 46.3652 139.101 45.8801 138.133 44.9096C137.166 43.9391 136.682 42.4991 136.682 40.59V33.3348H140.333V40.0409C140.333 42.1092 141.184 43.1433 142.885 43.1433C143.759 43.1433 144.461 42.8572 144.991 42.2842C145.522 41.6957 145.787 40.8287 145.787 39.683V33.3348H149.439Z" fill="#2E4057"/>
<path d="M155.138 35.0292C155.575 34.4087 156.16 33.9393 156.894 33.6211C157.643 33.3029 158.501 33.1438 159.469 33.1438V36.5805C159.063 36.5486 158.79 36.5327 158.649 36.5327C157.604 36.5327 156.784 36.835 156.192 37.4396C155.599 38.0283 155.302 38.9193 155.302 40.1125V46.1746H151.651V33.3348H155.138V35.0292Z" fill="#2E4057"/>
<path d="M172.69 39.8025C172.69 39.8499 172.667 40.1841 172.62 40.8048H163.094C163.265 41.6003 163.671 42.2285 164.311 42.6901C164.95 43.1513 165.746 43.3821 166.698 43.3821C167.353 43.3821 167.931 43.2866 168.43 43.0956C168.945 42.8891 169.421 42.5707 169.858 42.141L171.801 44.2889C170.615 45.6732 168.882 46.3652 166.604 46.3652C165.184 46.3652 163.928 46.087 162.836 45.53C161.744 44.9574 160.901 44.1695 160.308 43.1672C159.715 42.1649 159.419 41.0273 159.419 39.7546C159.419 38.4977 159.707 37.368 160.285 36.3657C160.878 35.3474 161.681 34.5599 162.696 34.003C163.725 33.4302 164.872 33.1438 166.136 33.1438C167.369 33.1438 168.485 33.4143 169.483 33.9552C170.482 34.4962 171.262 35.2758 171.824 36.2941C172.401 37.2964 172.69 38.4658 172.69 39.8025ZM166.16 35.96C165.333 35.96 164.638 36.1986 164.077 36.6759C163.515 37.1533 163.172 37.8056 163.047 38.6329H169.249C169.124 37.8215 168.781 37.1771 168.219 36.6998C167.657 36.2066 166.971 35.96 166.16 35.96Z" fill="#2E4057"/>
<path fill-rule="evenodd" clip-rule="evenodd" d="M37.5907 20.1649C37.0344 19.8368 36.3484 19.8368 35.7921 20.1649C31.8405 22.4956 29.1754 26.8565 29.1754 31.8542C29.1754 32.5665 29.2295 33.2659 29.3338 33.9483C26.6136 33.0063 23.6682 33.3491 21.2625 34.7626C20.7056 35.0898 20.3626 35.6955 20.3632 36.3508C20.366 39.8081 22.1274 43.1776 25.282 45.0346C26.8296 45.9458 28.5188 46.3787 30.1849 46.3795C29.9314 47.112 29.7935 47.8999 29.7935 48.7208C29.7935 52.6051 32.8817 55.7538 36.6912 55.7538C40.5008 55.7538 43.5888 52.6051 43.5888 48.7208C43.5888 47.8979 43.4502 47.1085 43.1958 46.3747C44.7626 46.3242 46.3408 45.8905 47.794 45.0346C50.9488 43.1776 52.7099 39.8081 52.7127 36.3509C52.7134 35.6956 52.3704 35.0899 51.8135 34.7627C49.5025 33.4049 46.6935 33.0351 44.0649 33.8431C44.1589 33.1941 44.2073 32.53 44.2073 31.8542C44.2073 26.8565 41.5423 22.4956 37.5907 20.1649ZM32.7673 31.8542C32.7673 28.6088 34.3085 25.7287 36.6914 23.936C39.0743 25.7287 40.6155 28.6088 40.6155 31.8542C40.6155 35.0996 39.0743 37.9797 36.6914 39.7724C34.3085 37.9797 32.7673 35.0996 32.7673 31.8542ZM43.7745 37.9361C45.4331 36.9597 47.3495 36.8461 49.0237 37.4639C48.7115 39.2511 47.6567 40.8864 45.9981 41.8629C44.3396 42.8393 42.4231 42.9527 40.749 42.3352C41.0612 40.5478 42.116 38.9124 43.7745 37.9361ZM24.0524 37.4638C25.7265 36.846 27.6429 36.9596 29.3015 37.9359C30.9601 38.9123 32.0148 40.5478 32.3271 42.3348C30.653 42.9527 28.7365 42.8393 27.078 41.8629C25.4194 40.8864 24.3647 39.251 24.0524 37.4638ZM33.3855 48.7208C33.3855 46.8594 34.8655 45.3501 36.6912 45.3501C38.5168 45.3501 39.997 46.8594 39.997 48.7208C39.997 50.5822 38.5168 52.0914 36.6912 52.0914C34.8655 52.0914 33.3855 50.5822 33.3855 48.7208Z" fill="#2E4057"/>
</g>
</svg>
